<svg width="114" height="114" viewBox="0 0 114 114" fill="none" xmlns="http://www.w3.org/2000/svg">
<path d="M111 31.4521V7H42.7184C28.9368 7 21.4195 7 13.2759 17.0316C6.7609 25.0569 3.04406 35.8409 2 40.2298L5.75862 42.1107C5.75862 42.1107 10.1437 31.4521 21.4195 31.4521H36.454C34.7835 37.9309 30.6908 53.0201 27.6839 61.547C24.677 70.0739 16.2505 80.0886 13.2759 83.4912C8.8908 88.507 8.26438 96.0307 10.7701 101.047C13.2759 106.062 23.2988 109.824 31.4425 104.181C39.5862 98.5386 41.4655 84.1182 42.7184 75.9675L47.7299 31.4521H69.0287L63.3908 80.9833C62.1379 89.552 64.3931 106.689 83.4368 106.689C102.48 106.689 106.615 86.2081 106.615 75.9675H103.483C103.483 75.9675 100.977 91.6419 92.8333 91.6419C86.3184 91.6419 85.5249 77.8484 85.9425 70.9517L87.8218 31.4521H111Z" fill="black"/>
</svg>
