<svg width="512" height="512" viewBox="0 0 512 512" fill="none" xmlns="http://www.w3.org/2000/svg">
<path d="M90 225C96 147 149.5 131.677 206.5 147.5C283.3 168.819 342.5 166.599 371 164.5C407 159 435.5 151 462.771 142.148C422.589 69.3264 345.055 20 256 20C125.661 20 20 125.661 20 256C20 386.339 125.661 492 256 492C386.339 492 492 386.339 492 256C492 232.177 488.47 209.179 481.905 187.5" stroke="black" stroke-width="30"/>
<path d="M208.5 145L161 418" stroke="black" stroke-width="30"/>
<path d="M312 160L282.5 347C280.513 364.474 284.902 398.249 321 402C357.098 405.751 374 382 392 362.5" stroke="black" stroke-width="30"/>
</svg>
