<svg width="104" height="104" viewBox="0 0 104 104" fill="none" xmlns="http://www.w3.org/2000/svg">
<circle cx="52" cy="52" r="48.5" stroke="black" stroke-width="3"/>
<path d="M67.0817 68.482L54.1842 35.518H58.0441L69.3412 64.9972L80.6854 35.518H84.404L71.4123 68.482H67.0817Z" fill="black"/>
<path d="M36.8515 65.7036C38.7344 65.7036 40.5545 65.3112 42.3118 64.5263C44.0691 63.7415 45.544 62.627 46.7365 61.1828L49.0901 63.5845C47.4896 65.3112 45.6225 66.6454 43.4886 67.5873C41.3547 68.5291 39.1109 69 36.7574 69C34.4038 69 32.1915 68.5605 30.1203 67.6814C28.0806 66.771 26.3076 65.5623 24.8013 64.0554C23.3264 62.5171 22.1496 60.7119 21.2709 58.6399C20.4236 56.5679 20 54.3546 20 52C20 49.6454 20.4236 47.4321 21.2709 45.3601C22.1496 43.2567 23.3421 41.4515 24.8483 39.9446C26.3546 38.4063 28.1276 37.1976 30.1674 36.3186C32.2072 35.4395 34.4038 35 36.7574 35C39.1737 35 41.4645 35.4709 43.6298 36.4127C45.7951 37.3546 47.6465 38.6888 49.1842 40.4155L46.7836 42.9114C45.5597 41.4672 44.0534 40.337 42.2647 39.5208C40.476 38.7045 38.6402 38.2964 36.7574 38.2964C34.9059 38.2964 33.18 38.6574 31.5795 39.3795C29.9791 40.0702 28.5984 41.0277 27.4373 42.2521C26.2762 43.4765 25.3504 44.9363 24.6601 46.6316C24.0011 48.2955 23.6716 50.0849 23.6716 52C23.6716 53.9151 24.0011 55.7202 24.6601 57.4155C25.3504 59.0794 26.2762 60.5235 27.4373 61.7479C28.5984 62.9723 29.9791 63.9455 31.5795 64.6676C33.2113 65.3583 34.9687 65.7036 36.8515 65.7036Z" fill="black"/>
</svg>
