<svg width="104" height="104" viewBox="0 0 104 104" fill="none" xmlns="http://www.w3.org/2000/svg">
<circle cx="52" cy="52" r="48.5" stroke="black" stroke-width="3"/>
<path d="M23.35 68.0621V34.9379C23.35 34.2173 23.6386 33.5696 24.1051 33.1005C24.5692 32.6338 25.203 32.35 25.9027 32.35H77.0973C77.797 32.35 78.4308 32.6338 78.8949 33.1005C79.3614 33.5696 79.65 34.2173 79.65 34.9379V68.0621C79.65 68.7827 79.3614 69.4304 78.8949 69.8995C78.4308 70.3662 77.797 70.65 77.0973 70.65H25.9027C25.203 70.65 24.5692 70.3662 24.1051 69.8995C23.6386 69.4304 23.35 68.7827 23.35 68.0621Z" stroke="black" stroke-width="2.7"/>
<path d="M79 33L56.8949 50.8585M24 33L46.1051 50.8585M24 70L46.1051 50.8585M46.1051 50.8585L48.1712 52.5424C50.858 54.5314 52.3116 54.6398 54.8288 52.5424L56.8949 50.8585M79 70L56.8949 50.8585" stroke="black" stroke-width="2.7"/>
</svg>
