<svg width="104" height="104" viewBox="0 0 104 104" fill="none" xmlns="http://www.w3.org/2000/svg">
<circle cx="52" cy="52" r="48.5" stroke="black" stroke-width="3"/>
<path d="M42.5078 81C42.5078 80.0905 42.4762 77.6803 42.4604 74.4873C31.9075 76.7968 29.6819 69.3487 29.6819 69.3487C27.9558 64.9279 25.4614 63.7455 25.4614 63.7455C22.0249 61.3711 25.7269 61.4198 25.7269 61.4198C29.5365 61.6861 31.5377 65.3664 31.5377 65.3664C34.9204 71.2229 40.4181 69.5306 42.5869 68.5529C42.9283 66.0745 43.9052 64.3886 44.9895 63.4304C36.5643 62.4722 27.7092 59.1785 27.7092 44.5031C27.7092 40.3227 29.1792 36.9056 31.6135 34.2258C31.1867 33.2578 29.9064 29.3632 31.9455 24.0881C31.9455 24.0881 35.1227 23.0617 42.3782 28.0152C45.4132 27.1642 48.6378 26.7419 51.8625 26.7224C55.0871 26.7419 58.3118 27.1642 61.3468 28.0152C68.5548 23.0617 71.7321 24.0881 71.7321 24.0881C73.7712 29.3632 72.4908 33.2578 72.1114 34.2258C74.5299 36.9056 76 40.3227 76 44.5031C76 59.2175 67.1322 62.456 58.6912 63.3979C60.019 64.5478 61.2519 66.8963 61.2519 70.4855C61.2519 75.6112 61.2045 79.7299 61.2045 80.974" stroke="black" stroke-width="3"/>
</svg>
